PathFileType	4	(X/Y/Z)	./resultDataOpenSim/trcMotMarkerGrf/sub10/qtm-04-08.trc
DataRate	CameraRate	NumFrames	NumMarkers	Units	OrigDataRate	OrigDataStartFrame	OrigNumFrames
250.000000	250.000000	14	24	m	250.000000	474	541
Frame#	Time	L.Toe.Tip			R.Toe.Tip			L.Ankle.Lat			R.Ankle.Lat			L.Ankle.Med			R.Ankle.Med			L.Heel			R.Heel			L.Knee.Lat			R.Knee.Lat			L.Knee.Med			R.Knee.Med			L.Thigh.Upper			R.Thigh.Upper			L.ASIS			R.ASIS			V.Sacral			L.Acromium			R.Acromium			C7			L.Elbow			R.Elbow			L.Wrist.Lat			R.Wrist.Lat
		X1	Y1	Z1	X2	Y2	Z2	X3	Y3	Z3	X4	Y4	Z4	X5	Y5	Z5	X6	Y6	Z6	X7	Y7	Z7	X8	Y8	Z8	X9	Y9	Z9	X10	Y10	Z10	X11	Y11	Z11	X12	Y12	Z12	X13	Y13	Z13	X14	Y14	Z14	X15	Y15	Z15	X16	Y16	Z16	X17	Y17	Z17	X18	Y18	Z18	X19	Y19	Z19	X20	Y20	Z20	X21	Y21	Z21	X22	Y22	Z22	X23	Y23	Z23	X24	Y24	Z24

474	1.892	1.5708315	0.11491353	-0.050611851	0.78463777	0.037828636	0.11723167	1.4409848	0.078683669	-0.061805243	0.65382473	0.08473468	0.15562737	1.4506596	0.10596863	0.018806435	0.67931837	0.10402924	0.071393332	1.4046734	0.024671309	-0.0058540049	0.59660126	0.075066434	0.11158505	1.2787506	0.4329333	-0.086194448	0.87054404	0.42621976	0.18614309	1.3073048	0.41716963	0.031821435	0.89595056	0.42140549	0.059454888	1.124337	0.77735801	-0.13674673	0.97919124	0.82541056	0.22762346	1.1587087	0.8889499	-0.053073762	1.0834851	0.90216273	0.18513428	0.93300631	0.90476424	-0.006804855	1.0469883	1.3681822	-0.10513429	1.0313935	1.3643526	0.21896672	0.95622759	1.3889986	0.047866812	0.89245899	1.0758433	-0.18914886	1.034293	1.0004307	0.30078576	0.92470332	0.84750628	-0.25297026	1.2872606	0.99023885	0.30306521
475	1.896	1.5744088	0.11218835	-0.050343732	0.78492593	0.037872471	0.11725892	1.4443738	0.076851268	-0.061316855	0.65498705	0.086570775	0.15585233	1.4543305	0.10413169	0.019257665	0.68056505	0.10553137	0.071619347	1.4076024	0.023226925	-0.0054004666	0.59756989	0.07759425	0.11188308	1.2856066	0.43273342	-0.086468421	0.87429014	0.42625266	0.18593589	1.3144446	0.41729474	0.031438107	0.89993366	0.42103549	0.059290849	1.1303818	0.77737384	-0.13726892	0.98455754	0.82472071	0.22682892	1.1652797	0.88825716	-0.053096249	1.0894653	0.90114047	0.18498093	0.93949176	0.90436583	-0.007460938	1.0531058	1.3676527	-0.10595117	1.0376154	1.3639274	0.21817977	0.96230317	1.3883238	0.047004341	0.89902169	1.0750171	-0.18974766	1.0403437	0.99959329	0.29870305	0.93182134	0.8468795	-0.25439938	1.2932151	0.98899446	0.30120469
476	1.9	1.5777496	0.10941059	-0.049903134	0.78523714	0.037901741	0.11729634	1.4475153	0.074992901	-0.060635083	0.65616666	0.088502766	0.15609996	1.4577445	0.10219061	0.019767473	0.68188604	0.10710291	0.071858163	1.4100915	0.022014012	-0.0049184217	0.59863682	0.080236745	0.11215506	1.2923783	0.43251031	-0.086777428	0.8781409	0.42631209	0.18571652	1.3214749	0.41736362	0.031041379	0.90401546	0.42071526	0.059124422	1.1365032	0.77742538	-0.13778114	0.99005734	0.82404013	0.2260345	1.1718781	0.8876848	-0.053188331	1.09553	0.90012613	0.18481668	0.94599043	0.90399556	-0.0080568412	1.0592923	1.3671357	-0.10679063	1.043903	1.3635563	0.21735166	0.96843164	1.3876968	0.046119406	0.90564572	1.074196	-0.19037525	1.0463901	0.99884888	0.29657182	0.93916608	0.84624637	-0.25586057	1.2991187	0.98767156	0.29935968
477	1.904	1.5809011	0.10653278	-0.049346259	0.78556492	0.037914783	0.11732691	1.4504215	0.073110034	-0.059768353	0.65740379	0.090514135	0.15634525	1.4609124	0.1001467	0.020341982	0.68330104	0.10874041	0.072095777	1.4120718	0.021121053	-0.0044197438	0.59980501	0.082987272	0.11239808	1.2990576	0.432253	-0.08711037	0.88211519	0.42640108	0.18548902	1.328398	0.41737288	0.03063436	0.9081733	0.42045056	0.058941615	1.1427092	0.77750123	-0.13829444	0.99570444	0.82337489	0.22525796	1.178518	0.88721387	-0.05334518	1.1016921	0.89912689	0.18462955	0.95250291	0.90366311	-0.0085932038	1.0655484	1.3666341	-0.10766495	1.050259	1.3632456	0.21649093	0.97462163	1.3871138	0.045203759	0.91233907	1.0733867	-0.19103095	1.0523619	0.99818623	0.29436755	0.94668059	0.84561605	-0.25733789	1.3049335	0.98633803	0.29747465
478	1.908	1.5840013	0.10338906	-0.048756992	0.78589605	0.037908053	0.11733631	1.4531384	0.071235207	-0.058791601	0.65872302	0.092592797	0.15658438	1.4638886	0.098075592	0.020991632	0.68482213	0.11043934	0.072330888	1.4135835	0.020539865	-0.0039121228	0.60108006	0.085843058	0.11261339	1.3056536	0.43195284	-0.087447449	0.88620852	0.42652664	0.1852597	1.3352104	0.41732156	0.030222225	0.91241842	0.42023577	0.058751077	1.1489983	0.77759731	-0.13881713	1.0015089	0.82272781	0.22450818	1.185197	0.8868322	-0.053563587	1.1079656	0.89816046	0.18441517	0.95902629	0.90337893	-0.0090691242	1.0718607	1.3661521	-0.10857625	1.056687	1.3630007	0.21560415	0.98088023	1.386565	0.04426442	0.91909976	1.0725965	-0.19171188	1.0581839	0.99759266	0.29206372	0.95426472	0.845009	-0.25880328	1.31065	0.98502396	0.29553018
479	1.912	1.5872806	0.099679941	-0.04820462	0.78622958	0.037888046	0.11731983	1.4557717	0.069497703	-0.05787726	0.66013181	0.094739808	0.15681363	1.4667934	0.096144601	0.0217142	0.68645061	0.11219701	0.072573356	1.4147674	0.020282569	-0.0033784039	0.60246899	0.088801419	0.11280384	1.312176	0.43161205	-0.08777243	0.89039949	0.42669122	0.18501738	1.3419171	0.41721042	0.029814072	0.91676867	0.42006824	0.058564857	1.1553714	0.77771302	-0.13936086	1.0074757	0.82209925	0.22378054	1.1918809	0.88653785	-0.053840271	1.1143574	0.89723977	0.18417551	0.96555093	0.90314667	-0.0094894662	1.0782177	1.365687	-0.1095198	1.0631752	1.3628178	0.21468961	0.98719242	1.3860491	0.043305206	0.92591973	1.0718248	-0.19242205	1.0638325	0.99705945	0.28965784	0.96186937	0.84443102	-0.26024302	1.3162906	0.98370664	0.29354189
480	1.916	1.5909565	0.095105507	-0.047728001	0.78658261	0.037870392	0.11728729	1.4584458	0.068098328	-0.057182363	0.66163953	0.096959785	0.15702384	1.4697936	0.094537612	0.022468264	0.68818449	0.11401273	0.072833126	1.4157913	0.020480392	-0.0028134205	0.6039828	0.09185641	0.11297426	1.3186179	0.4312566	-0.08807388	0.89467096	0.42689078	0.18474485	1.3485332	0.41704101	0.029427821	0.92123031	0.41994736	0.058387176	1.1618357	0.77784719	-0.13994152	1.0136099	0.82148737	0.22306456	1.1985178	0.88633479	-0.054170619	1.1208655	0.89636302	0.18391059	0.97206935	0.90296783	-0.0098704909	1.0846158	1.3652334	-0.11049521	1.0697181	1.3626881	0.21374127	0.9935249	1.3855744	0.04231762	0.93279351	1.0710628	-0.19316388	1.0693667	0.99658311	0.28719213	0.9695129	0.84386775	-0.26166385	1.3218808	0.98235609	0.29152744
481	1.92	1.5950383	0.089635398	-0.047366706	0.78697448	0.037865608	0.11725225	1.4612424	0.06717361	-0.056733961	0.66327792	0.099247192	0.15721076	1.4730158	0.093333403	0.023166173	0.69002991	0.11588387	0.073115635	1.4167872	0.021259047	-0.0022868911	0.60563637	0.095004002	0.11313489	1.3249652	0.43094947	-0.088341179	0.89903114	0.42712141	0.18443957	1.3550725	0.41682981	0.02908784	0.92580244	0.41986706	0.058209391	1.1683984	0.77799739	-0.14057652	1.0199219	0.82088659	0.22235511	1.2050654	0.88622832	-0.054560043	1.1274888	0.89552102	0.18361346	0.97858392	0.9028499	-0.010238614	1.0910545	1.3647921	-0.11150312	1.0763592	1.3625975	0.2127452	0.9998543	1.3851482	0.041296147	0.93971777	1.0702964	-0.19393396	1.0748789	0.99616862	0.28472468	0.97723256	0.84330276	-0.26307772	1.327433	0.98096379	0.28949205
482	1.924	1.5992419	0.083670016	-0.047155366	0.78741412	0.037876234	0.11721321	1.4641716	0.066671039	-0.056469526	0.66509986	0.10159693	0.15738675	1.4764398	0.092464013	0.02370602	0.69200068	0.11780459	0.073425657	1.417828	0.022543242	-0.0019283721	0.60743954	0.098246932	0.11330989	1.3312257	0.43079055	-0.088574058	0.90351038	0.42738519	0.18411672	1.3615452	0.41662889	0.028805337	0.93048618	0.41981505	0.058016461	1.1750652	0.77816583	-0.14128115	1.0264183	0.82029147	0.22165612	1.2115077	0.8862174	-0.055028836	1.1342276	0.8947108	0.18327339	0.98509928	0.90280461	-0.010619616	1.0975312	1.3643716	-0.11253947	1.0831927	1.362523	0.21166732	1.0061825	1.3847753	0.040241216	0.94669725	1.069516	-0.19473084	1.0804124	0.99582667	0.28227844	0.98506238	0.84272723	-0.26449097	1.3329511	0.9795339	0.28743194
483	1.928	1.6031773	0.077850502	-0.047040865	0.78789754	0.037903313	0.11714912	1.4671653	0.066373337	-0.056340781	0.66714274	0.10402471	0.15758363	1.4798765	0.091795244	0.0240262	0.69411067	0.11976919	0.073771358	1.4189252	0.024066795	-0.0018430368	0.609391	0.10159288	0.11353552	1.3374505	0.43089575	-0.088797212	0.90813332	0.42768757	0.18379196	1.3679631	0.41653808	0.028561422	0.93528853	0.41977834	0.057802043	1.1818407	0.7783663	-0.14206227	1.033085	0.81970552	0.22097432	1.2178519	0.88628896	-0.055595535	1.1410755	0.89393639	0.182882	0.99160682	0.90284054	-0.011021988	1.1040435	1.363981	-0.11359825	1.0902834	1.3624487	0.21047839	1.0125263	1.3844671	0.039151415	0.95374485	1.0687251	-0.19556118	1.0859465	0.99556977	0.27983689	0.99303559	0.84213791	-0.26590588	1.3384324	0.97806606	0.28534988
484	1.932	1.6066346	0.072674463	-0.0468248	0.78841015	0.037940323	0.11704806	1.4701027	0.066062236	-0.056334964	0.66937815	0.10654225	0.15782923	1.4830835	0.091230815	0.024139144	0.69637287	0.12177461	0.074160818	1.4200472	0.025554358	-0.0020502989	0.61149482	0.10504366	0.11382675	1.3437367	0.43136433	-0.08906052	0.91290612	0.42803027	0.18347136	1.3743461	0.41668694	0.028314698	0.9402191	0.41975089	0.057574374	1.1887258	0.7786238	-0.14291442	1.0398883	0.81913757	0.22031349	1.2241166	0.886426	-0.056263192	1.1480147	0.89320148	0.18243379	0.99808292	0.90296061	-0.011433188	1.1105947	1.363624	-0.11467626	1.0975524	1.3624042	0.20921847	1.0189021	1.3842432	0.038027638	0.96086858	1.0679375	-0.19643618	1.0914415	0.99540939	0.27737892	1.001175	0.84153751	-0.26732439	1.3438609	0.97655442	0.28326014
485	1.936	1.6096503	0.068295241	-0.046238284	0.78893859	0.037963155	0.11695521	1.4728746	0.065664084	-0.056435895	0.67168628	0.10911716	0.1581202	1.4859135	0.090744889	0.024108088	0.69880257	0.12381839	0.074593373	1.4211507	0.026858445	-0.002482297	0.6137769	0.10858502	0.11414748	1.3502049	0.43224689	-0.089422114	0.91782777	0.42840643	0.18315949	1.3807236	0.41717224	0.028026656	0.945285	0.41973959	0.057346315	1.1957139	0.77896938	-0.14382392	1.0467941	0.81858605	0.21967824	1.2303249	0.88662391	-0.05702592	1.1550227	0.89250805	0.18192072	1.0045159	0.90316362	-0.011836064	1.1171871	1.3633031	-0.1157744	1.1048017	1.3624572	0.20799227	1.0253245	1.3841209	0.03687759	0.96807099	1.0671698	-0.19734952	1.096872	0.99535046	0.27490469	1.0094652	0.84093791	-0.2687388	1.3492056	0.97499385	0.2811712
486	1.94	1.6123396	0.064590332	-0.045124909	0.78948553	0.037944669	0.1169616	1.4754251	0.065249721	-0.056608339	0.67392413	0.11170819	0.15844558	1.4883551	0.09035081	0.023990709	0.70141707	0.12589428	0.075059022	1.4221995	0.02796342	-0.0030286153	0.61626505	0.11219661	0.11443905	1.3569583	0.43352861	-0.089924739	0.92290279	0.42880054	0.18286584	1.3871151	0.41799613	0.027682667	0.95049271	0.41976106	0.057122062	1.2027892	0.77943836	-0.14477643	1.0537821	0.81803231	0.21907763	1.2364997	0.8868962	-0.057879956	1.1620807	0.89185952	0.1813304	1.0109349	0.90344207	-0.012223542	1.1238131	1.363024	-0.11689412	1.1119009	1.3626503	0.20686791	1.0318136	1.3841083	0.035713476	0.9753555	1.0664341	-0.19827186	1.1022307	0.99538903	0.27243446	1.0178519	0.84035654	-0.27012293	1.3544246	0.97338079	0.27908673
487	1.944	1.614754	0.06132435	-0.043555383	0.79006812	0.037886488	0.11709837	1.4777353	0.064922386	-0.056814606	0.6760901	0.114332	0.15881796	1.4904717	0.090057318	0.023819315	0.70423609	0.12799238	0.075550099	1.4231634	0.028916302	-0.0035997609	0.61896176	0.1158731	0.11467281	1.3640453	0.43513758	-0.090575019	0.92814539	0.42919376	0.18259864	1.393505	0.41907614	0.027294696	0.95585335	0.41982927	0.05689539	1.2099286	0.78007375	-0.14576317	1.0608391	0.81745196	0.21851782	1.242661	0.88726307	-0.058821287	1.1691777	0.89126002	0.18065286	1.0173883	0.90378445	-0.012591885	1.130458	1.3627936	-0.11803314	1.118878	1.3629699	0.20582596	1.0383934	1.3842083	0.03454745	0.9827192	1.0657294	-0.19918259	1.1075138	0.99551929	0.26998858	1.026292	0.83980697	-0.27144871	1.3594823	0.97171436	0.27703363
